<?xml version="1.0" encoding="iso-8859-1"?>
<!-- Uploaded to: SVG Repo, www.svgrepo.com, Generator: SVG Repo Mixer Tools -->
<svg height="800px" width="800px" version="1.1" id="Layer_1" xmlns="http://www.w3.org/2000/svg" xmlns:xlink="http://www.w3.org/1999/xlink" 
	 viewBox="0 0 473.931 473.931" xml:space="preserve">
<circle style="fill:#49A0AE;" cx="236.966" cy="236.966" r="236.966"/>
<path style="fill:#D1D1D1;" d="M299.973,385.427c-8.696,0-17.137-1.351-24.943-3.869c-33.912-10.945-52.56-40.778-45.361-72.549
	l18.249,4.135c-5.841,25.747,12.299,43.969,32.856,50.607c29.68,9.583,68.688-2.107,88.942-49.792
	c17.568-41.395,8.359-77.795-25.93-102.483C283.67,168.2,163.055,171.623,79.31,245.71l-12.396-14.013
	c90.438-80.003,221.83-82.902,287.794-35.401c41.511,29.882,53.253,75.434,32.22,124.979
	C367.478,367.089,332.018,385.427,299.973,385.427z"/>
<path style="fill:#FFFFFF;" d="M44.299,234.702c0-18.66,15.128-33.781,33.777-33.781s33.777,15.12,33.777,33.781
	c0,18.645-15.128,33.766-33.777,33.766S44.299,253.347,44.299,234.702z"/>
<path style="fill:#D1D1D1;" d="M60.579,234.702c0-9.665,7.835-17.5,17.496-17.5c9.654,0,17.496,7.835,17.496,17.5
	c0,9.654-7.843,17.481-17.496,17.481C68.414,252.183,60.579,244.356,60.579,234.702z"/>
<path style="fill:#FFFFFF;" d="M293.036,81.522c-0.703-3.173-1.923-5.459-3.697-5.459c-5.852,0-12.146,5.56-12.146,12.426
	c0,6.862,6.294,12.426,12.146,12.426c2.155,0,3.51-3.364,4.079-7.611c8.924,1.257,25.433,5.407,25.365,18.974
	c-0.314,63.763-27.97,163.93-29.174,168.293c-0.052,0.198-5.231,18.6-45.114,20.22c-1.826-0.4-3.727-0.655-5.699-0.655
	s-3.873,0.247-5.699,0.655c-39.06-1.613-42.577-19.577-42.622-19.872l-0.153-0.677c-1.197-4.187-29.399-103.269-28.269-166.123
	c0.239-13.616,15.091-18.615,24.235-20.404c0.599,4.041,1.931,7.199,4.011,7.199c5.852,0,12.153-5.564,12.153-12.426
	c0-6.866-6.301-12.426-12.153-12.426c-1.833,0-3.091,2.428-3.779,5.77c-14.907,2.327-35.678,10.911-36.059,32.074
	c-1.149,63.79,25.609,158.725,28.617,169.143c1.134,6.473,8.494,36.482,47.475,41.743c3.528,1.762,7.723,2.96,12.239,2.96
	c4.501,0,8.688-1.19,12.213-2.952c41.129-5.392,49.032-37.492,49.825-41.365c0.292-1.029,29.212-104.818,29.541-171.099
	C330.476,90.958,308.216,83.164,293.036,81.522z"/>
</svg>