<?xml version="1.0" encoding="utf-8"?>
<!-- Generator: Adobe Illustrator 22.1.0, SVG Export Plug-In . SVG Version: 6.00 Build 0)  -->
<svg version="1.1" id="Layer_1" xmlns="http://www.w3.org/2000/svg" xmlns:xlink="http://www.w3.org/1999/xlink" x="0px" y="0px"
	 width="512px" height="386px" viewBox="0 0 512 386" style="enable-background:new 0 0 512 386;" xml:space="preserve">
<style type="text/css">
	.st0{fill:#BCE3F8;}
	.st1{fill:#2F2E6B;}
	.st2{fill:#FFFFFF;}
	.st3{fill:#F2D291;}
	.st4{fill:#8FB2EE;}
	.st5{fill:#F6AA32;}
	.st6{fill:#FEFEFE;}
	.st7{fill:#D9D9D9;}
	.st8{fill:#EDBA68;}
</style>
<g>
	
		<ellipse transform="matrix(0.909 -0.4168 0.4168 0.909 -57.0091 124.104)" class="st0" cx="255.7" cy="192.6" rx="250.6" ry="151.7"/>
	<g>
		<path class="st1" d="M199.6,324.4h132.1c-4.2,2.1-8.4,4.1-12.7,6.1c-30.2,13.8-60.6,23.5-89.9,29.1h-29.5
			c-7.9,0-14.3-6.4-14.3-14.3v-6.6C185.3,330.8,191.7,324.4,199.6,324.4z"/>
		<path class="st1" d="M226.1,219.7h83.1c14,0,25.4,9.5,25.4,21.2v82c-5.2,2.6-10.4,5.2-15.8,7.6c-1.8,0.8-3.6,1.6-5.4,2.4H201.3
			c-0.4-1.5-0.6-3.1-0.6-4.7v-87.4C200.7,229.2,212.1,219.7,226.1,219.7z"/>
	</g>
	<path class="st2" d="M315.6,315h-92c-10.4,0-18.9,8.5-18.9,18.9v29.5c35.5-4.2,73.3-14.6,110.8-31.4v-17H315.6z"/>
	<g>
		<path class="st3" d="M372.1,202.3c0.4-2.1,4.7-15.9,5.1-17.3c0.4-1.4,5.9-5.3,6.9-5.9c1-0.6,5.5-3.8,6.6-5.8
			c1.1-1.9,4-3.7,5.2-4.3c1.4,0.4,0.9,5.9-1.2,8c-2.1,2.2-4,3.3-4.9,4.5s-1.2,3.4-1.2,3.4l3.2,1c0,0,7.3-2.1,8.3-2.1s6-2.6,6-2.6
			s2-4.9,3.3-4.8c0.6-0.2,1.2-0.4,1.8,0.5c0.4-2.8,2.7-5.4,4.5-5.6c0.5,0.2,1.1,1.4,1.1,1.4c0.3-0.6,2.2-2,2.9-1.8
			c0.7,0.2,0.9,0.9,0.9,0.9c1.2-2,2.5-3,4-2.6c-0.2,2-0.7,3.5-1.8,6.4c-1.1,2.9-4.6,9-4.6,9l-2.2,5.5c0,0-7.4,5.7-8.4,6.1
			c-1,0.5-2.4,4.8-4,5.3c-1.6,0.6-17.4,6.3-18.7,7.6c-1.3,1.3-2.1,3.4-2.5,4.3C381.9,214.5,372.1,201.9,372.1,202.3z"/>
		
			<rect x="410.3" y="179.6" transform="matrix(0.3297 -0.9441 0.9441 0.3297 110.4599 516.1687)" class="st1" width="16.8" height="1.3"/>
		<polygon class="st1" points="417.4,173.6 413.9,184.9 413.9,184.9 413.9,185 408.8,193.8 407.8,193.2 412.7,184.4 416.2,173.2 		
			"/>
		<path class="st1" d="M388.6,196.1c1.7-1,2.8-1.5,3.7-1.8c0.9-0.3,1.5-0.4,2.2-0.4c1,0,4.3,0.1,5.3,0.2l3.5-4c0.3-1,2-7.2,2.2-8.1
			c0.1-0.7,0.7-2.3,1.5-3.8c0.6-1,1.2-1.9,1.9-2.3l0.6,1.1c-0.5,0.3-1,1-1.4,1.8c-0.7,1.3-1.3,2.8-1.4,3.4c-0.2,1.1-2.3,8.3-2.3,8.4
			v0.1l-0.1,0.1l-3.7,4.4l-0.2,0.2h-0.3c0,0-4.3-0.2-5.6-0.2c-0.6,0-1.1,0-1.8,0.3c-0.8,0.3-1.9,0.8-3.5,1.7L388.6,196.1z"/>
	</g>
	<path class="st2" d="M315.6,238.8c4.3-16.6,7.6-35.7,6.4-52.8c-3.7-3-31.8-12.7-31.8-12.7l-47.6,0.4c0,0-27.1,9.3-30.8,12.4
		c-1.1,16,2,36.4,6.2,52.3v81.9h5.6h86.6h5.5v-81.5L315.6,238.8L315.6,238.8z"/>
	<path class="st2" d="M315.1,184.2c12.4,1.3,14.7,8.6,26.9,34.7c12.3,26.1,10.3,39.2,12.1,42.8c2.8,5.5-9.8,21.9-25.1,0
		c-9.3-13.3-17.6-30.8-19.5-35.1C306,218.5,296.1,188.4,315.1,184.2z"/>
	<path class="st2" d="M217,185c-12.4,0.8-15,8-28.2,33.7s-11.7,38.8-13.6,42.3c-2.9,5.4,9,22.3,25.1,0.9
		c9.8-12.9,18.7-30.2,20.7-34.3C224.9,219.6,235.8,189.9,217,185z"/>
	<polygon class="st4" points="242.4,173.6 266,219.8 290.1,173.3 283.1,170.9 248.9,170.8 	"/>
	<path class="st1" d="M268.8,193.5l2.2,16.7l-4.9,9.5l-4.9-9.6l2.2-16.6l-4.1-4.1l6.8-3.4l6.8,3.5L268.8,193.5L268.8,193.5z
		 M266,185.9l-0.4-0.4L266,185.9L266,185.9z"/>
	<path class="st3" d="M283,148.4c0.1,3.1,0,18.1,0,22.5l-17,15l-17.2-15.1v-22.4H283z"/>
	<path class="st1" d="M42.4,279.8h44.5c2,0,3.7,0.9,3.7,2v6.5c0,1.1-1.7,2-3.7,2H42.4c-2,0-3.7-0.9-3.7-2v-6.5
		C38.7,280.7,40.4,279.8,42.4,279.8z"/>
	<path class="st4" d="M20,197.8c-6.1,2.8-3.7,8.6-1.8,10.9c1.9,2.3,4.1,2.5,5.4,5.2c1.2,2.7-3.8,8.8-0.8,15.3s11.5,7.2,13.3,9.4
		s-1.2,3.8-0.3,5.8s4.8,6.2,10.2,3.8c5.4-2.5,5.7-17.1,2.3-24.6s-8.9-7.8-11.9-14.4C33.2,202.6,29.5,194.5,20,197.8z"/>
	<path class="st5" d="M42.8,253.3c-5.6-2.6-7.2-5.6-7.2-10s4.4-8.4,4.4-13.1c0-4.7-10.3-11.9-10.3-19.4s3-9.8,3-15
		c0-5.1-8.6-15.2-2.8-21s12.8,1.3,14.7,4.7s2.1,9.3,4.9,12.2c2.8,2.8,7.4,1.6,10.5,7s3.3,12.4,7.2,16.4c4,4,10.7,4.5,15.4,12.6
		c4.7,8.1-1.2,23.1-4.2,25C75.6,254.5,42.8,253.3,42.8,253.3z"/>
	<polygon class="st6" points="42.8,253.3 60.4,253.3 77.9,253.3 71.2,279.8 60.4,279.8 49.6,279.8 	"/>
	<polygon class="st7" points="76.6,258.7 75,265 45.8,265 44.2,258.7 	"/>
	<path class="st2" d="M62.9,253.4c0-0.1-8.6-39.2-23.9-64l1.1-0.7c15.5,25,24.1,64.3,24.1,64.4L62.9,253.4z"/>
	<path class="st2" d="M37.4,210.5c0,0,8.2,1.3,16.4,8l-0.8,1c-7.9-6.5-15.8-7.8-15.8-7.8L37.4,210.5z"/>
	<path class="st2" d="M59.4,239.7c0,0,1.8-9.5,3.6-12l1,0.7c-1.6,2.3-3.4,11.5-3.4,11.5L59.4,239.7z"/>
	<path class="st5" d="M391.2,259.1h71.5c2.1,0,3.8,1.7,3.8,3.8v2.8c0,2.1-1.7,3.8-3.8,3.8c-22.5,0-49,0-71.5,0
		C393.3,266.6,393.4,263.2,391.2,259.1z"/>
	<path class="st4" d="M381.1,259.1h72.7c0.8,0,1.4-0.6,1.4-1.4v-1c0-0.8-0.6-1.4-1.4-1.4h-72.7c-0.8,0-1.4,0.6-1.4,1.4v1
		C379.7,258.4,380.3,259.1,381.1,259.1z"/>
	<path class="st1" d="M387.5,279.2h71.6c0.9,0,1.7-0.4,2.2-0.9c0.6-0.6,0.9-1.4,0.9-2.2v-2.8c0-0.9-0.4-1.7-0.9-2.2l0,0
		c-0.6-0.6-1.4-0.9-2.2-0.9h-71.6c0.6,1.5,1,3,1,4.6C388.5,276.2,388.2,277.7,387.5,279.2L387.5,279.2z M459.1,280.5h-72.5h-1
		l0.5-0.9c0.9-1.6,1.3-3.3,1.2-4.9c0-1.6-0.4-3.3-1.2-4.9l-0.4-0.9h1h72.5c1.2,0,2.3,0.5,3.1,1.3l0,0l0,0c0.8,0.8,1.3,1.9,1.3,3.1
		v2.8c0,1.2-0.5,2.3-1.3,3.1l0,0C461.4,280,460.3,280.5,459.1,280.5z"/>
	<g>
		<g>
			<path class="st2" d="M102.6,282l-22.8,65.5c-0.4-0.2-0.8-0.4-1.1-0.6l22.7-65.3c0.2-0.5,0.7-0.8,1.3-0.9c0.5-0.1,1.1,0,1.7,0.2
				l0,0l0,0l6.1,2.1l0,0c0.6,0.2,1.1,0.6,1.5,0.9c0.4,0.5,0.6,1,0.4,1.5l-23.1,66.3c-0.4-0.2-0.8-0.3-1.2-0.5l23-66.2
				c0,0-0.1-0.2-0.2-0.3c-0.2-0.2-0.5-0.4-1-0.6l0,0L104,282l0,0c-0.4-0.1-0.8-0.2-1.1-0.1C102.7,281.9,102.6,282,102.6,282z"/>
			<path class="st2" d="M117.1,281.6l28.9,83c-0.5,0-0.9-0.1-1.4-0.1L116,282c0,0-0.1-0.1-0.3-0.1c-0.3-0.1-0.7,0-1.1,0.1l0,0
				l-6.1,2.1l0,0c-0.4,0.1-0.7,0.4-1,0.6c-0.1,0.1-0.2,0.2-0.2,0.3l27.2,78.3c-0.5-0.1-0.9-0.1-1.4-0.2l-27-77.7
				c-0.2-0.5,0-1.1,0.4-1.5c0.3-0.4,0.9-0.7,1.5-0.9l0,0l6.1-2.1l0,0l0,0c0.6-0.2,1.2-0.3,1.7-0.2
				C116.5,280.8,117,281.1,117.1,281.6z"/>
		</g>
		<g>
			<path class="st2" d="M141,281.8l-27,77.7c3.4,0.8,6.8,1.5,10.3,2.2l26.6-76.4c0.2-0.6-0.5-1.3-1.5-1.7l-6.1-2.1
				C142.2,281.1,141.2,281.3,141,281.8z"/>
			<path class="st2" d="M155.6,281.8l29,83.3c-3.7,0.2-7.3,0.3-10.9,0.4l-27.9-80.3c-0.2-0.6,0.5-1.3,1.5-1.7l6.1-2.1
				C154.4,281.1,155.4,281.3,155.6,281.8z"/>
		</g>
	</g>
	<polygon class="st4" points="217.8,315.9 315.6,295.2 315.6,284.3 217.8,285 	"/>
	<path class="st2" d="M478.5,279.8H87.9c-2,0-3.7,0.9-3.7,2v6.5c0,1.1,1.7,2,3.7,2h390.6c2,0,3.7-0.9,3.7-2v-6.5
		C482.2,280.7,480.5,279.8,478.5,279.8z"/>
	<path class="st1" d="M277.3,140.2h-28.4v29.9c10.4,6.5,25.5,2.3,34.5-9.8L277.3,140.2z"/>
	<path class="st3" d="M266.4,85.3c-7.2,0.2-28.8,0.9-29.2,29c-0.4,28,5,38.3,8.4,42.5s7,8,13.9,10c1.8,2,3.8,2.8,6.8,3.2
		c3.1-0.4,5-1.2,6.8-3.2c7-2,10.5-5.8,13.9-10s8.8-14.5,8.4-42.5C295.3,86.2,273.6,85.5,266.4,85.3z"/>
	<path class="st3" d="M293.1,126.4c0.7-1.8,1.5-3,3.7-3.5s6.2,0.7,6.2,6.9c0,6.2-5.2,11.6-8.5,10.9
		C291.3,139.9,292.8,128,293.1,126.4z"/>
	<path class="st1" d="M246.7,101.6c-2.6,1.5,0.8,22.3-9.3,22.3c-3-14.2-5.9-30.1,5.3-34.3c3.8-8.9,12.4-8.4,23.1-8.5
		c26.6-0.3,35.8,19.4,29.8,41.7c-9.7-0.1-6.4-10.3-10.3-12.5c-3.8-2.2-11.4,1.2-19.3,0.7C257,110.4,252.8,103.2,246.7,101.6z"/>
	<path class="st3" d="M239.4,126.4c-0.9-1.7-2-3.1-4.2-3.5c-2.2-0.5-6.2,0.7-6.2,6.9c0,6.2,5.2,11.6,8.5,10.9
		C240.8,139.9,239.4,126.4,239.4,126.4z"/>
	<path class="st1" d="M253,125.5c1.3,0,2.4,1.3,2.4,2.9c0.1,1.6-0.9,2.9-2.2,2.9s-2.4-1.3-2.4-2.9
		C250.7,126.8,251.7,125.5,253,125.5z"/>
	<path class="st1" d="M236.5,129.5c0-0.2-0.3-0.6-0.7-1c-0.3-0.3-0.7-0.7-1.1-0.9c-0.4-0.2-0.9-0.4-1.4-0.4s-1.1,0.2-1.6,0.7
		l-0.6-0.7c0.7-0.7,1.5-1,2.3-1c0.6,0,1.3,0.2,1.8,0.5s1,0.7,1.4,1.1c0.6,0.6,1,1.3,1,1.7H236.5z"/>
	<path class="st1" d="M294.7,129.5c0-0.4,0.4-1,1-1.7c0.4-0.4,0.8-0.8,1.4-1.1c0.6-0.3,1.2-0.5,1.8-0.5c0.8,0,1.5,0.3,2.3,1
		l-0.6,0.7c-0.5-0.5-1.1-0.7-1.6-0.7s-0.9,0.2-1.4,0.4c-0.4,0.2-0.8,0.6-1.1,0.9c-0.4,0.5-0.7,0.9-0.7,1H294.7z"/>
	<path class="st1" d="M278.4,125.5c-1.3,0-2.4,1.3-2.4,2.9c-0.1,1.6,0.9,2.9,2.2,2.9c1.3,0,2.4-1.3,2.4-2.9
		C280.7,126.8,279.7,125.5,278.4,125.5z"/>
	<path class="st1" d="M265.2,126c0.6,1.3,0.6,3.6,0.5,6c-0.2,3.5-1,7.3-1.4,8.7c-0.5,1.5,2.1,1.2,2.1,1.2l0.2,1.2
		c0,0-4.5,0.5-3.5-2.8c0.4-1.4,1.2-5.1,1.4-8.4c0.2-2.2,0.1-4.3-0.4-5.4L265.2,126z"/>
	<path class="st1" d="M260.4,150.3c0,0,4.3,3.2,11.6-0.2l0.5,1.1c-8.1,3.7-12.9,0.1-12.9,0.1L260.4,150.3z"/>
	<polygon class="st1" points="283.2,121.2 274.8,121.3 274.8,120 283.2,119.9 	"/>
	<polygon class="st1" points="248.8,119.9 257.2,120 257.2,121.3 248.8,121.2 	"/>
	<path class="st1" d="M250.7,88.3c-0.3,0.4-0.6,0.8-0.8,1.2c-2.1,3.4-2.8,7.8-2.1,12.1c0.7,4.2,2.8,8.2,6.2,10.9
		c0.4,0.3,0.8,0.6,1.3,0.9l-0.7,1.1c-0.5-0.3-0.9-0.6-1.4-1c-3.7-2.9-5.9-7.2-6.7-11.7c-0.7-4.5,0-9.2,2.3-12.9
		c0.3-0.4,0.6-0.9,0.9-1.3L250.7,88.3z"/>
	<path class="st1" d="M263.9,125.1c-1.6-0.2-13.7-2.1-19.9-0.1c-1.3,3.1,1.6,9.2,2.7,9.8c1.1,0.6,11.4,0.8,13.4,0.5
		c2-0.1,3-7,3.3-7.9c0.1-0.3,0.2-0.5,0.2-0.8c0.7-0.2,1.9-0.3,3.1-0.3c0.8,0,1.7,0.1,2.4,0.3c0.1,0.3,0.1,0.6,0.2,0.8
		c0.3,0.9,1.3,7.8,3.3,7.9c2,0.3,12.3,0.2,13.4-0.5c1.1-0.6,4.1-6.7,2.7-9.8c-6-1.9-17.8-0.2-19.8,0.1c-0.7-0.1-1.5-0.2-2.3-0.2
		C265.7,124.9,264.7,125,263.9,125.1L263.9,125.1z M270.9,126c1.2-0.2,11.2-1.7,16.3-0.1c1.1,2.5-1.3,7.5-2.2,8
		c-0.9,0.5-9.3,0.6-11,0.4c-1.6-0.1-2.5-5.7-2.7-6.5C271,127.1,270.9,126,270.9,126L270.9,126z M262,126c0,0-0.1,1.1-0.4,1.9
		c-0.2,0.7-1.1,6.4-2.7,6.5c-1.6,0.3-10.1,0.2-11-0.4c-0.9-0.5-3.3-5.5-2.2-8C250.8,124.3,260.9,125.8,262,126z"/>
	
		<rect x="373.8" y="196.4" transform="matrix(0.4991 -0.8665 0.8665 0.4991 9.5224 432.1309)" class="st4" width="9.5" height="22.9"/>
	<path class="st2" d="M332.5,260.4c2.8-17.6,33.5-56.2,34.6-57.7c5.9,3.1,19,10.9,23.7,14.3c-5,14.1-23.4,54.6-37.3,59.8
		C349.7,278.3,330.8,271.6,332.5,260.4z"/>
	<path class="st1" d="M384.5,217.7c1.2,0,2.3,1,2.3,2.3c0,1.2-1,2.3-2.3,2.3c-1.2,0-2.3-1-2.3-2.3S383.2,217.7,384.5,217.7z"/>
	<g>
		<path class="st8" d="M289.3,269.7c1.2-0.3,2.2-1.3,2.4-1.8c0.3-0.5-9.4-5.5-9.4-5.5S286.9,269.1,289.3,269.7z"/>
		<path class="st1" d="M280.6,247.5L297,276c0.6,1,0.4,1.7,0,2.2h-3c-0.1-0.1-0.2-0.2-0.2-0.3l-16.3-28.5
			C276.1,247.3,279.4,245.4,280.6,247.5z"/>
		<path class="st3" d="M250,263.4c3.3-1.7,20.7-11.6,21.5-11.8s12.9,1.1,12.9,1.1l11.8,9.2c0,0-4.5,0.3-6-0.2s-5-3.6-5-3.6H279
			l4.8,3.3c0,0,12.7,10.7,13.4,11.1c0.7,0.3-3.3,1.3-5.4,0.5s-7.8-4.5-7.8-4.5s6.5,6.5,7.2,7.3c-0.5,0.7-2.3,1-3.6,0.5l0.4,0.6
			c0,0-2.6,1.2-5.6,0.6s-4.6-2-4.6-2s-6,0.3-7,0.2c-1-0.1-6.1,1.1-8.1,1.7c-2.1,0.6-9.5,1.5-10.9,0.8c-1.4-0.6-3.6-2.8-3.6-2.8
			L250,263.4z"/>
		<path class="st1" d="M276.6,261.7c0,0,2.5,1.5,4.8,3.4c2.3,2,3.9,4,3.9,4.1l-1,0.8c0,0-1.6-2-3.7-3.9c-2.2-1.9-4.6-3.3-4.6-3.3
			L276.6,261.7z"/>
		<path class="st1" d="M287.3,276.9c-1.4-0.7-3.5-2-5.2-3.1c-1.2-0.7-2.2-1.4-2.7-1.6l0,0c-1.1-0.5-7.6-1.4-7.6-1.4l0.2-1.2
			c0,0,6.7,0.9,8,1.5l0,0c0.5,0.3,1.6,0.9,2.8,1.7c1.7,1.1,3.8,2.4,5.1,3L287.3,276.9z"/>
	</g>
	
		<rect x="238.2" y="263.6" transform="matrix(0.1267 -0.9919 0.9919 0.1267 -48.5263 480.9731)" class="st4" width="21.3" height="8.9"/>
	<polygon class="st2" points="207,252.2 249.4,256.4 244.6,278.8 175,276.5 	"/>
	<g>
		<path class="st4" d="M162.9,279.8h68.7c3,0,5.5-2.5,5.5-5.5l0,0h-74.3v5.5H162.9z"/>
		<path class="st4" d="M67.9,199.8h101.9c1.7,0,3.4,1.4,3.7,3.1l13.9,73.8c0.3,1.7-0.8,3.1-2.5,3.1h-102c-1.7,0-3.4-1.4-3.7-3.1
			l-13.9-73.8C65,201.2,66.2,199.8,67.9,199.8z"/>
		<path class="st2" d="M71.3,205.6H165c1,0,2,0.4,2.8,1.1c0.8,0.7,1.4,1.6,1.5,2.6l12.3,65.5l-1.2,0.2l-12.3-65.5
			c-0.1-0.7-0.6-1.4-1.1-1.8c-0.6-0.5-1.3-0.8-2-0.8H71.3V205.6z"/>
	</g>
	<rect x="42.4" y="279.2" class="st1" width="439.8" height="1.3"/>
	<polygon class="st1" points="265.8,219.2 288.6,201.9 286.1,194.6 285.9,194.1 286.3,193.9 294.5,188.4 291.8,174.2 293,174 
		295.8,188.6 295.9,189 295.6,189.2 287.4,194.7 290,201.9 290.1,202.4 289.8,202.6 266.6,220.2 	"/>
	<polygon class="st1" points="265.8,220.2 242.6,202.6 242.3,202.4 242.4,201.9 245,194.7 236.8,189.2 236.5,189 236.5,188.6 
		239.4,174 240.6,174.2 237.9,188.4 246.1,193.9 246.5,194.1 246.3,194.6 243.7,201.9 266.6,219.2 	"/>
	<g>
		<g>
			<path class="st4" d="M277.4,236l0.7,0.2l0.6,0.2l-0.2,0.6l-0.4,1.1l-0.2,0.6l-0.6-0.2l-0.4-0.2l0,0l-0.2-0.1l0,0
				c-1.7-0.6-2.7-0.9-3.7-2.6c-0.4-0.6-0.6-1.6-0.5-3c0.2-6.1,6.9-18.2,10.9-20.5l0.5-0.3l0.3,0.5l0.7,1l0.4,0.5l-0.6,0.3
				c0,0-0.6,0.4-2.5,2.9c-3.1,4.4-6.9,9.9-7.3,15.4c-0.1,0.9,0,1.6,0.2,1.9C275.6,235.3,276.2,235.6,277.4,236z"/>
			<path class="st1" d="M277.5,239.3c-1.3-0.4-2.1-1.6-1.7-2.6s1.7-1.5,3-1c1.3,0.4,2.1,1.6,1.7,2.6S278.8,239.7,277.5,239.3z"/>
			<path class="st4" d="M289.3,240.3l-0.7-0.3l-0.6-0.2l-0.2,0.6l-0.4,1.1l-0.2,0.6l0.5,0.2l0.4,0.2l0,0l0.2,0.1l0,0
				c1.7,0.6,2.7,1,4.5,0.3c0.7-0.3,1.5-0.9,2.3-2c3.6-4.9,6-18.6,4.3-22.8l-0.2-0.5l-0.5,0.2l-1.1,0.4l-0.6,0.2l0.3,0.6
				c0,0,0.3,0.7,0.1,3.8c-0.3,5.3-0.8,12-4,16.6c-0.5,0.8-1,1.2-1.3,1.3C291.1,241,290.5,240.8,289.3,240.3z"/>
			<path class="st1" d="M287.2,242.9c1.3,0.5,2.6,0,3-1s-0.4-2.2-1.7-2.7c-1.3-0.5-2.6,0-3,1S285.9,242.4,287.2,242.9z"/>
			<path class="st5" d="M298.4,203.1c0.6,1.8,1,3.5,1.3,5.1c0.3,1.7,0.6,3.2,0.8,4.6c0.1,0.8,0.2,1.5,0.2,2.3c0.1,0.7,0.1,1.4,0.1,2
				c0.1,0.7,0.1,1.4,0.1,1.9c0,0.6,0,1-0.1,1.2l-0.1,1.2l-1.2-0.1l-1-0.1h-1h-1.2V220c0-0.4,0-0.8,0-1.3l0,0c0-0.4,0-0.9,0-1.4
				c0-0.2-0.1-0.4-0.1-0.7c-0.1-0.3-0.1-0.5-0.2-0.7c-0.2-0.7-0.5-1.3-0.9-1.8c-0.8-1.2-1.7-2-2.8-2.4c-1.1-0.4-2.4-0.3-3.7,0.2
				c-0.6,0.2-1.2,0.5-1.9,0.9c-0.2,0.1-0.4,0.3-0.6,0.5s-0.4,0.3-0.6,0.5c-0.3,0.4-0.6,0.7-0.9,1c-0.3,0.4-0.6,0.7-0.8,1l-0.7,0.9
				l-0.9-0.7l-0.8-0.6l-0.8-0.5l-1-0.7l0.7-1c0.1-0.2,0.4-0.6,0.7-1c0.3-0.4,0.8-0.9,1.3-1.5c0.4-0.5,0.9-1,1.4-1.5
				c0.5-0.6,1.1-1.1,1.6-1.7c1.1-1,2.2-2.1,3.6-3.2c1.3-1.1,2.8-2.2,4.3-3.2l0.5-0.3l0.6,0.2l3.2,1.1l0.6,0.2L298.4,203.1
				L298.4,203.1z M292.7,207.3c0.4,0.1,0.9,0.2,1.3,0.3s0.9,0.3,1.3,0.5l-0.1-0.3l0,0c-0.2-0.7-0.3-1.3-0.5-2
				c-0.4,0.3-0.9,0.7-1.5,1.1L292.7,207.3z"/>
		</g>
		<path class="st5" d="M294.4,202.4c1.4-3.1,2.5-7,3-11c0.6-4.8,0.3-9.8-1.2-14c-1.4-4.1-3.9-7.5-7.9-9.3c-1.4-0.7-3.4-1.1-5.3-1.3
			v-3.2c2.2,0.3,4.8,0.9,6.5,1.7c4.9,2.2,7.9,6.3,9.6,11.2c1.6,4.7,1.9,10.2,1.3,15.4c-0.5,4.4-1.7,8.6-3.2,12L294.4,202.4z"/>
	</g>
	<path class="st5" d="M234.1,221c-3.5-4.3-7.3-14.7-8.1-25.5c-0.4-5.2-0.1-10.5,1.2-15.3c1.4-4.9,3.8-9.3,7.7-12.5
		c3.4-2.8,8.2-4.6,14-5v3.1c-5.1,0.4-9.1,1.9-12,4.3c-3.3,2.7-5.4,6.5-6.6,10.9c-1.2,4.4-1.5,9.4-1.1,14.3
		c0.8,10.2,4.2,19.9,7.4,23.8L234.1,221z"/>
	<g>
		<path class="st4" d="M234.8,233.1c-4.4-2.8-5.5-8.6-2.6-12.8s8.8-5.3,13.2-2.5s5.5,8.6,2.6,12.8
			C245,234.8,239.1,235.9,234.8,233.1z"/>
		<path class="st2" d="M236.5,230.5c-2.9-1.9-3.7-5.7-1.7-8.5s5.9-3.6,8.8-1.7c2.9,1.9,3.7,5.7,1.7,8.5
			C243.4,231.7,239.4,232.4,236.5,230.5L236.5,230.5z M237.8,228.8c1.9,1.3,4.5,0.8,5.8-1.1c1.3-1.9,0.8-4.4-1.1-5.6
			c-1.9-1.3-4.5-0.8-5.8,1.1C235.3,225,235.8,227.5,237.8,228.8z"/>
	</g>
</g>
</svg>
